<?xml version="1.0" encoding="UTF-8" standalone="no"?>
<!-- Created with Inkscape (http://www.inkscape.org/) -->

<svg
   xmlns:dc="http://purl.org/dc/elements/1.1/"
   xmlns:cc="http://creativecommons.org/ns#"
   xmlns:rdf="http://www.w3.org/1999/02/22-rdf-syntax-ns#"
   xmlns:svg="http://www.w3.org/2000/svg"
   xmlns="http://www.w3.org/2000/svg"
   xmlns:sodipodi="http://sodipodi.sourceforge.net/DTD/sodipodi-0.dtd"
   xmlns:inkscape="http://www.inkscape.org/namespaces/inkscape"
   width="210mm"
   height="297mm"
   viewBox="0 0 744.09448819 1052.3622047"
   id="svg3966"
   version="1.1"
   inkscape:version="0.91 r13725"
   sodipodi:docname="larus.svg">
  <defs
     id="defs3968">
    <inkscape:path-effect
       effect="powerstroke"
       id="path-effect3728-4"
       is_visible="true"
       offset_points="0.14331775,-1.0350786"
       sort_points="true"
       interpolator_type="Linear"
       interpolator_beta="0.2"
       start_linecap_type="zerowidth"
       linejoin_type="round"
       miter_limit="4"
       end_linecap_type="zerowidth"
       cusp_linecap_type="round" />
    <inkscape:path-effect
       effect="powerstroke"
       id="path-effect3732-93"
       is_visible="true"
       offset_points="0,-0.61164816"
       sort_points="true"
       interpolator_type="Linear"
       interpolator_beta="0.2"
       start_linecap_type="zerowidth"
       linejoin_type="round"
       miter_limit="4"
       end_linecap_type="zerowidth"
       cusp_linecap_type="round" />
    <inkscape:path-effect
       effect="powerstroke"
       id="path-effect3732-9-4"
       is_visible="true"
       offset_points="0,-0.61164816"
       sort_points="true"
       interpolator_type="Linear"
       interpolator_beta="0.2"
       start_linecap_type="zerowidth"
       linejoin_type="round"
       miter_limit="4"
       end_linecap_type="zerowidth"
       cusp_linecap_type="round" />
    <inkscape:path-effect
       effect="skeletal"
       id="path-effect4315"
       is_visible="true"
       pattern="m 277.70218,249.20696 c 0,-2.76 2.24,-5 5,-5 2.76,0 5,2.24 5,5 0,2.76 -2.24,5 -5,5 -2.76,0 -5,-2.24 -5,-5 z"
       copytype="single_stretched"
       prop_scale="1"
       scale_y_rel="false"
       spacing="0"
       normal_offset="0"
       tang_offset="0"
       prop_units="false"
       vertical_pattern="false"
       fuse_tolerance="0" />
    <inkscape:path-effect
       effect="powerstroke"
       id="path-effect3728-4-1"
       is_visible="true"
       offset_points="0.14331775,-0.69759723"
       sort_points="true"
       interpolator_type="Linear"
       interpolator_beta="0.2"
       start_linecap_type="zerowidth"
       linejoin_type="round"
       miter_limit="4"
       end_linecap_type="zerowidth"
       cusp_linecap_type="round" />
    <inkscape:path-effect
       effect="powerstroke"
       id="path-effect3732-93-0"
       is_visible="true"
       offset_points="0,-0.41222382"
       sort_points="true"
       interpolator_type="Linear"
       interpolator_beta="0.2"
       start_linecap_type="zerowidth"
       linejoin_type="round"
       miter_limit="4"
       end_linecap_type="zerowidth"
       cusp_linecap_type="round" />
    <inkscape:path-effect
       effect="powerstroke"
       id="path-effect3732-9-4-6"
       is_visible="true"
       offset_points="0,-0.41222382"
       sort_points="true"
       interpolator_type="Linear"
       interpolator_beta="0.2"
       start_linecap_type="zerowidth"
       linejoin_type="round"
       miter_limit="4"
       end_linecap_type="zerowidth"
       cusp_linecap_type="round" />
    <inkscape:path-effect
       effect="skeletal"
       id="path-effect4347"
       is_visible="true"
       pattern="m 94.506894,109.019 c 0,-2.76 2.24,-5 5,-5 2.759996,0 4.999996,2.24 4.999996,5 0,2.76 -2.24,5 -4.999996,5 -2.76,0 -5,-2.24 -5,-5 z"
       copytype="single_stretched"
       prop_scale="1"
       scale_y_rel="false"
       spacing="0"
       normal_offset="0"
       tang_offset="0"
       prop_units="false"
       vertical_pattern="false"
       fuse_tolerance="0" />
    <inkscape:path-effect
       effect="skeletal"
       id="path-effect4343"
       is_visible="true"
       pattern="m 94.506894,109.019 c 0,-2.76 2.24,-5 5,-5 2.759996,0 4.999996,2.24 4.999996,5 0,2.76 -2.24,5 -4.999996,5 -2.76,0 -5,-2.24 -5,-5 z"
       copytype="single_stretched"
       prop_scale="1"
       scale_y_rel="false"
       spacing="0"
       normal_offset="0"
       tang_offset="0"
       prop_units="false"
       vertical_pattern="false"
       fuse_tolerance="0" />
    <inkscape:path-effect
       effect="skeletal"
       id="path-effect4339"
       is_visible="true"
       pattern="m 94.506894,111.03931 c 0,-2.76 2.24,-5 5,-5 2.759996,0 4.999996,2.24 4.999996,5 0,2.76 -2.24,5 -4.999996,5 -2.76,0 -5,-2.24 -5,-5 z"
       copytype="single_stretched"
       prop_scale="1"
       scale_y_rel="false"
       spacing="0"
       normal_offset="0"
       tang_offset="0"
       prop_units="false"
       vertical_pattern="false"
       fuse_tolerance="0" />
    <inkscape:path-effect
       effect="skeletal"
       id="path-effect4335"
       is_visible="true"
       pattern="m 94.506894,109.019 c 0,-2.76 2.24,-5 5,-5 2.759996,0 4.999996,2.24 4.999996,5 0,2.76 -2.24,5 -4.999996,5 -2.76,0 -5,-2.24 -5,-5 z"
       copytype="single_stretched"
       prop_scale="1"
       scale_y_rel="false"
       spacing="0"
       normal_offset="0"
       tang_offset="0"
       prop_units="false"
       vertical_pattern="false"
       fuse_tolerance="0" />
    <inkscape:path-effect
       effect="skeletal"
       id="path-effect4323"
       is_visible="true"
       pattern="m 94.506894,109.019 c 0,-2.76 2.24,-5 5,-5 2.759996,0 4.999996,2.24 4.999996,5 0,2.76 -2.24,5 -4.999996,5 -2.76,0 -5,-2.24 -5,-5 z"
       copytype="single_stretched"
       prop_scale="1"
       scale_y_rel="false"
       spacing="0"
       normal_offset="0"
       tang_offset="0"
       prop_units="false"
       vertical_pattern="false"
       fuse_tolerance="0" />
    <inkscape:path-effect
       effect="skeletal"
       id="path-effect4331"
       is_visible="true"
       pattern="m 92.486589,113.05961 c 0,-2.76 2.24,-5 5,-5 2.760001,0 5.000001,2.24 5.000001,5 0,2.76 -2.24,5 -5.000001,5 -2.76,0 -5,-2.24 -5,-5 z"
       copytype="single_stretched"
       prop_scale="1"
       scale_y_rel="false"
       spacing="0"
       normal_offset="0"
       tang_offset="0"
       prop_units="false"
       vertical_pattern="false"
       fuse_tolerance="0" />
    <inkscape:path-effect
       effect="skeletal"
       id="path-effect4319"
       is_visible="true"
       pattern="m 88.445978,109.019 c 0,-2.76 2.24,-5 5,-5 2.76,0 5,2.24 5,5 0,2.76 -2.24,5 -5,5 -2.76,0 -5,-2.24 -5,-5 z"
       copytype="single_stretched"
       prop_scale="1"
       scale_y_rel="false"
       spacing="0"
       normal_offset="0"
       tang_offset="0"
       prop_units="false"
       vertical_pattern="false"
       fuse_tolerance="0" />
    <inkscape:path-effect
       effect="skeletal"
       id="path-effect4315-1"
       is_visible="true"
       pattern="m 77.713107,112.93334 c 0,-2.76 2.24,-5 5,-5 2.76,0 5,2.24 5,5 0,2.76 -2.24,5 -5,5 -2.76,0 -5,-2.24 -5,-5 z"
       copytype="single_stretched"
       prop_scale="1"
       scale_y_rel="false"
       spacing="0"
       normal_offset="0"
       tang_offset="0"
       prop_units="false"
       vertical_pattern="false"
       fuse_tolerance="0" />
  </defs>
  <sodipodi:namedview
     id="base"
     pagecolor="#ffffff"
     bordercolor="#666666"
     borderopacity="1.0"
     inkscape:pageopacity="0.0"
     inkscape:pageshadow="2"
     inkscape:zoom="0.35"
     inkscape:cx="129.05065"
     inkscape:cy="457.69107"
     inkscape:document-units="px"
     inkscape:current-layer="layer1"
     showgrid="false"
     inkscape:window-width="1366"
     inkscape:window-height="706"
     inkscape:window-x="-8"
     inkscape:window-y="-8"
     inkscape:window-maximized="1" />
  <metadata
     id="metadata3971">
    <rdf:RDF>
      <cc:Work
         rdf:about="">
        <dc:format>image/svg+xml</dc:format>
        <dc:type
           rdf:resource="http://purl.org/dc/dcmitype/StillImage" />
        <dc:title></dc:title>
      </cc:Work>
    </rdf:RDF>
  </metadata>
  <g
     inkscape:label="Layer 1"
     inkscape:groupmode="layer"
     id="layer1">
    <path
       style="fill:#000000;fill-rule:evenodd;stroke:none;stroke-width:1px;stroke-linecap:butt;stroke-linejoin:miter;stroke-opacity:1"
       d="m 211.87136,267.62529 c 1.05857,0.35672 -0.87744,8.8959 -4.72281,23.19499 -2.52248,9.37898 -5.40978,19.61307 -9.07745,32.9088 -5.25361,19.05073 -11.85845,43.20416 -17.38015,68.02442 -0.85962,3.86404 -1.68033,7.68411 -2.46296,11.46889 -2.83602,13.72256 -5.01409,26.18217 -6.44061,38.38956 -1.40428,12.15733 -1.99089,22.23073 -1.25954,31.98026 0.3438,4.55873 0.92978,8.5652 1.92511,12.28084 0.99264,3.65765 2.21154,6.668 3.84465,9.19788 1.78982,2.78594 3.90817,4.75839 5.99755,6.06509 0,0 1e-5,0 1e-5,0 5.33545,3.40623 9.14895,2.69726 9.15504,3.91816 4.9e-4,0.0981 -3.77262,2.42091 -10.9089,-0.38942 0,0 0,0 0,0 -2.83289,-1.14124 -5.91449,-3.18959 -8.55878,-6.40448 -2.35275,-2.86468 -4.27217,-6.34721 -5.73806,-10.40957 -1.49752,-4.11207 -2.53295,-8.56214 -3.21803,-13.44038 -1.45721,-10.33929 -1.41307,-21.23008 -0.3631,-33.70704 1.04436,-12.5941 3.02729,-25.55003 5.806,-39.46348 0.76874,-3.85139 1.58932,-7.73646 2.46189,-11.65779 5.65955,-25.43404 12.81325,-49.20573 19.15016,-68.2806 4.20453,-12.66031 8.23472,-23.71144 11.58685,-32.28408 5.40787,-13.83073 9.22594,-21.72134 10.20313,-21.39205 z"
       id="path4317"
       inkscape:path-effect="#path-effect4319"
       inkscape:original-d="m 211.87136,267.62529 c -14.17695,42.07088 -81.7432,237.73499 -20.42116,237.42889"
       inkscape:connector-curvature="0" />
    <path
       style="fill:#000000;fill-rule:evenodd;stroke:none;stroke-width:1px;stroke-linecap:butt;stroke-linejoin:miter;stroke-opacity:1"
       d="m 292.35466,394.73053 c 2.16548,0.72858 -1.35117,14.09113 -5.63843,33.27191 -1.64169,7.37664 -3.49504,16.04461 -4.51449,24.70217 -0.21413,1.81842 -0.3893,3.61149 -0.52324,5.38537 -0.701,9.89542 -0.20947,17.99531 2.00498,25.20194 1.26612,4.20976 2.98268,7.7364 4.78216,10.64144 4.18521,6.79316 8.312,9.88864 7.49273,11.12082 -0.4704,0.70748 -6.01935,-0.3548 -12.50746,-7.19654 -2.75827,-2.92077 -5.4833,-6.80868 -7.56919,-11.68803 -3.48679,-8.25992 -4.85762,-17.95551 -4.13501,-28.76254 0.12172,-1.94426 0.29982,-3.90121 0.53225,-5.87188 1.11875,-9.48558 3.3937,-18.36668 5.73394,-25.86123 6.00394,-19.29484 12.75081,-31.47871 14.34176,-30.94343 z"
       id="path4321"
       inkscape:path-effect="#path-effect4323"
       inkscape:original-d="m 292.35466,394.73053 c -14.26385,42.39479 -28.64953,88.87865 3.60371,110.32365"
       inkscape:connector-curvature="0" />
    <path
       style="fill:#000000;fill-rule:evenodd;stroke:none;stroke-width:1px;stroke-linecap:butt;stroke-linejoin:miter;stroke-opacity:1"
       d="m 277.93973,402.95651 c -0.45059,1.19648 -5.45167,-0.78274 -14.34063,-0.62718 -3.49974,0.0581 -7.62446,0.50989 -11.93254,1.82338 -6.46045,1.93664 -13.17203,5.85948 -19.40115,12.08645 -5.36471,5.37985 -9.98834,12.14306 -13.76274,20.13365 -3.01317,6.42343 -5.37149,13.46603 -6.69472,20.89795 -0.14367,0.80688 -0.27421,1.61327 -0.39163,2.41885 -1.04244,7.44518 -1.10249,14.50918 0.56016,20.88382 0.74341,2.86833 1.7598,5.49828 3.16705,7.73961 1.35654,2.16979 3.03863,4.01968 4.94989,5.34601 2.10402,1.50545 4.64376,2.45243 7.187,2.94495 3.406,0.66932 7.04474,0.47211 10.40741,-0.0192 5.15061,-0.76858 10.11245,-2.44312 14.13264,-3.98035 11.70385,-4.49029 18.09368,-8.67943 18.91181,-7.47305 0.43575,0.64254 -4.72699,6.56936 -16.3907,12.90996 -4.04114,2.20263 -9.21656,4.56862 -15.1718,6.00683 -3.88503,0.94817 -8.3791,1.48585 -13.14987,0.92397 -3.6291,-0.43708 -7.39558,-1.63145 -10.87405,-3.80406 -3.09823,-1.97433 -5.78009,-4.61776 -7.86582,-7.74335 -2.11462,-3.17649 -3.64508,-6.68536 -4.65427,-10.33828 -2.19953,-7.99611 -2.35413,-16.44455 -1.10294,-24.83027 0.13162,-0.9133 0.27885,-1.82667 0.4417,-2.7397 1.50115,-8.41611 4.23725,-16.29344 7.77547,-23.38983 4.38537,-8.8487 10.00824,-16.34688 16.50004,-22.23031 7.57981,-6.89163 15.99002,-10.84484 23.81356,-12.38057 5.23288,-1.00514 10.00486,-0.89492 13.9045,-0.31922 9.84904,1.46346 14.17546,5.24525 13.98163,5.75994 z"
       id="path4329"
       inkscape:path-effect="#path-effect4331"
       inkscape:original-d="m 277.93973,402.95651 c -78.61664,-29.60688 -109.56795,151.5923 -7.20745,82.17489"
       inkscape:connector-curvature="0" />
    <path
       style="fill:#000000;fill-rule:evenodd;stroke:none;stroke-width:1px;stroke-linecap:butt;stroke-linejoin:miter;stroke-opacity:1"
       d="m 311.57457,394.73053 c 0.10461,-0.49228 6.24155,-2.41672 14.96823,3.53857 3.61556,2.51096 7.13709,6.26557 9.80424,11.30684 2.37198,4.47461 4.02681,9.52755 5.02842,15.0741 0.99957,5.45959 1.40257,11.12615 1.35882,17.04036 -0.006,0.89016 -0.022,1.7836 -0.0466,2.68045 -0.32736,11.93463 -2.23783,23.31815 -4.13671,32.33848 0,0 0,0 0,0 -1.24333,5.92914 -2.63008,11.43747 -3.79845,15.63267 -2.24568,8.07388 -4.04893,12.85612 -5.15931,12.71218 -1.22364,-0.15862 -1.5657,-5.30469 -0.98567,-13.76624 0.32109,-4.68622 0.84334,-9.6685 1.51413,-15.91528 0,0 0,0 0,0 0.94003,-8.80652 2.28717,-20.35789 2.57384,-31.27029 0.0221,-0.84028 0.0382,-1.67549 0.048,-2.50622 0.0642,-5.52447 -0.12827,-10.5989 -0.76713,-15.45259 -0.66233,-4.92746 -1.6455,-9.182 -3.1955,-12.9793 -1.71707,-4.20566 -3.90483,-7.46634 -6.32691,-9.92977 -5.75116,-5.9775 -11.24675,-6.7752 -10.87939,-8.50396 z"
       id="path4333"
       inkscape:path-effect="#path-effect4335"
       inkscape:original-d="m 311.57457,394.73053 c 41.74523,8.87076 22.02008,79.45534 18.01865,110.32365"
       inkscape:connector-curvature="0" />
    <path
       style="fill:#000000;fill-rule:evenodd;stroke:none;stroke-width:1px;stroke-linecap:butt;stroke-linejoin:miter;stroke-opacity:1"
       d="m 336.80067,431.79688 c -0.9541,-0.18814 -1.58169,-2.65889 -1.30277,-6.84913 0.26652,-4.00398 1.46987,-10.34773 5.299,-16.6795 1.54925,-2.51003 3.61803,-4.98647 6.28098,-7.11822 2.17443,-1.71708 4.61841,-3.10994 7.24582,-4.1404 0.17648,-0.0692 0.35316,-0.13655 0.52999,-0.20201 6.38507,-2.31185 12.74556,-2.67878 17.6799,-2.67896 12.20162,-0.0948 20.54527,1.30887 20.72551,2.93056 0.24816,2.23276 -8.0726,4.21649 -20.06122,5.95212 -4.66539,0.71207 -10.35735,1.40127 -14.83398,3.15908 -0.12442,0.0475 -0.24854,0.0958 -0.37232,0.1449 -1.8421,0.73122 -3.51333,1.61003 -4.96018,2.65119 -1.78978,1.26013 -3.36137,2.85694 -4.70351,4.52035 -3.39842,4.13507 -5.86441,9.68211 -7.44585,12.87274 -1.75149,3.53372 -3.04312,5.64201 -4.08137,5.43728 z"
       id="path4337"
       inkscape:path-effect="#path-effect4339"
       inkscape:original-d="m 336.80067,431.79688 c 7.45957,-37.82908 26.54261,-31.41266 56.45843,-34.73766"
       inkscape:connector-curvature="0" />
    <path
       style="fill:#000000;fill-rule:evenodd;stroke:none;stroke-width:1px;stroke-linecap:butt;stroke-linejoin:miter;stroke-opacity:1"
       d="m 404.0703,394.7307 c 2.4026,0.42484 -1.75054,19.2854 -0.62209,48.53028 0,0 0,10e-6 0,10e-6 0.39227,9.75497 1.3617,21.35242 4.84608,32.15451 2.11094,6.27351 4.86843,12.7378 9.51398,16.77005 1.59871,1.4252 3.37733,2.59858 5.23448,3.21618 1.68106,0.59199 3.56334,0.80117 5.40767,0.61512 0.25535,-0.0229 0.512,-0.0544 0.76974,-0.0942 1.77725,-0.2743 3.58502,-0.93633 5.33145,-1.80706 2.40613,-1.20841 4.65631,-2.92377 6.75951,-4.85297 5.80129,-5.30774 10.10896,-12.33996 13.5851,-19.22424 5.36231,-10.72026 8.6845,-21.9867 10.96904,-31.6441 0,0 0,-10e-6 0,-10e-6 6.17623,-26.17833 5.68841,-43.66354 7.87716,-43.66354 0.89297,0 4.28357,17.50667 -0.28728,45.17836 0,0 0,10e-6 0,10e-6 -1.68227,10.22315 -4.6243,22.25373 -10.10302,34.17785 -3.47499,7.63449 -8.27515,15.6975 -15.26273,22.39602 -2.56767,2.45571 -5.54979,4.72444 -8.9766,6.51225 -2.5118,1.31658 -5.31695,2.3095 -8.3327,2.79306 -0.43709,0.0701 -0.87775,0.12933 -1.3217,0.17729 -3.29196,0.33435 -6.61528,-0.0607 -9.72593,-1.15451 -3.35072,-1.21461 -6.25527,-3.10082 -8.63564,-5.34245 -6.46788,-6.2102 -9.9079,-14.13838 -11.86988,-21.30506 -3.52944,-12.34435 -4.04669,-24.68473 -3.78603,-34.84916 0,0 0,-1e-5 0,-1e-5 0.72948,-30.42301 7.83266,-48.72453 8.62939,-48.58365 z"
       id="path4341"
       inkscape:path-effect="#path-effect4343"
       inkscape:original-d="m 404.0703,394.7307 c -26.53855,150.084 69.67212,133.27732 69.67212,0"
       inkscape:connector-curvature="0" />
    <path
       style="fill:#000000;fill-rule:evenodd;stroke:none;stroke-width:1px;stroke-linecap:butt;stroke-linejoin:miter;stroke-opacity:1"
       d="m 555.42696,394.73053 c 0.21278,0.49924 -1.51684,1.99073 -5.34595,3.52532 -4.55253,1.82452 -8.92564,2.64485 -16.75719,4.10306 -3.01129,0.58959 -6.45823,1.32497 -9.4401,2.6059 -2.75102,1.16393 -5.46352,2.91761 -7.69571,5.27442 -0.57534,0.67603 -1.03554,1.24581 -1.10546,1.6841 -0.0709,0.25207 -0.0723,0.56817 0.008,0.79627 0.0478,0.33869 0.35249,0.81455 0.74945,1.44294 0,0 0,1e-5 0,1e-5 0.50901,0.74904 1.23643,1.49546 2.0978,2.32444 2.17578,2.07074 4.76277,3.87429 7.70601,5.94403 3.10925,2.16582 6.88824,4.6944 10.29113,7.15476 3.50976,2.53123 7.14262,5.35706 10.57228,8.62753 3.1658,2.99616 6.22196,6.54116 8.62475,10.76836 0.39824,0.70209 0.77099,1.42394 1.11575,2.16377 1.66315,3.56897 2.63415,7.46742 2.74372,11.47665 0.0517,5.8006 -1.60437,11.15642 -4.03057,15.65766 -4.32599,8.3516 -10.30793,15.4195 -17.81924,20.10683 0,0 0,0 0,0 -6.85199,4.20159 -14.45568,5.69215 -21.29318,5.07755 -8.21658,-0.80269 -14.93749,-4.31757 -19.63699,-7.95641 -11.93451,-9.22314 -13.05407,-18.18663 -12.85886,-18.30171 1.60503,-0.94623 4.86517,6.68742 16.22833,13.36599 4.43226,2.59651 10.35641,5.00293 16.73939,5.08325 5.22712,0.11466 10.9852,-1.42931 15.98623,-4.81864 -10e-6,0 0,0 0,0 5.70321,-3.77555 10.24713,-9.76767 13.97708,-17.033 1.71129,-3.51922 2.91958,-7.33208 2.75054,-10.94794 -0.0425,-2.47203 -0.72576,-5.03135 -1.86519,-7.4867 -0.23619,-0.50895 -0.49079,-1.01083 -0.76145,-1.50374 -1.68412,-3.07395 -4.13186,-5.88522 -6.79363,-8.52777 -2.90252,-2.85645 -6.1692,-5.47716 -9.44348,-7.97385 -2.86332,-2.17799 -7.1321,-5.24669 -9.98703,-7.39185 -2.92342,-2.17839 -5.81387,-4.43046 -8.49965,-7.18783 -1.09606,-1.11509 -2.17166,-2.40297 -3.12319,-3.91094 0,0 0,-1e-5 0,-1e-5 -0.83059,-1.26867 -1.49216,-2.84398 -1.82781,-4.67874 -0.28317,-1.83066 -0.0555,-3.64296 0.61608,-5.29172 0.86048,-1.94243 2.02772,-3.40308 3.23032,-4.45021 3.32555,-3.03012 7.10634,-5.06726 10.83708,-6.26371 3.98004,-1.2529 7.88411,-1.69816 11.11547,-1.91995 11.18762,-0.85513 9.0636,-0.27691 16.72307,-1.19236 3.7968,-0.45379 5.93211,-0.90966 6.17245,-0.34576 z"
       id="path4345"
       inkscape:path-effect="#path-effect4347"
       inkscape:original-d="m 555.42696,394.73053 c -15.5,6.60629 -30.48372,1.41063 -42.04351,12.61524 -17.01368,16.49099 57.05146,30.28752 37.23855,68.69591 -17.9507,34.79839 -51.72706,27.52819 -67.26965,1.16433"
       inkscape:connector-curvature="0" />
  </g>
</svg>
