<?xml version="1.0" encoding="UTF-8" standalone="no"?>
<!-- Created with Inkscape (http://www.inkscape.org/) -->

<svg
   xmlns:dc="http://purl.org/dc/elements/1.1/"
   xmlns:cc="http://creativecommons.org/ns#"
   xmlns:rdf="http://www.w3.org/1999/02/22-rdf-syntax-ns#"
   xmlns:svg="http://www.w3.org/2000/svg"
   xmlns="http://www.w3.org/2000/svg"
   xmlns:sodipodi="http://sodipodi.sourceforge.net/DTD/sodipodi-0.dtd"
   xmlns:inkscape="http://www.inkscape.org/namespaces/inkscape"
   width="210mm"
   height="297mm"
   viewBox="0 0 744.09448819 1052.3622047"
   id="svg3966"
   version="1.1"
   inkscape:version="0.91 r13725"
   sodipodi:docname="Magdalena Bujalska.svg">
  <defs
     id="defs3968">
    <inkscape:path-effect
       effect="powerstroke"
       id="path-effect3728-4"
       is_visible="true"
       offset_points="0.14331775,-1.0350786"
       sort_points="true"
       interpolator_type="Linear"
       interpolator_beta="0.2"
       start_linecap_type="zerowidth"
       linejoin_type="round"
       miter_limit="4"
       end_linecap_type="zerowidth"
       cusp_linecap_type="round" />
    <inkscape:path-effect
       effect="powerstroke"
       id="path-effect3732-93"
       is_visible="true"
       offset_points="0,-0.61164816"
       sort_points="true"
       interpolator_type="Linear"
       interpolator_beta="0.2"
       start_linecap_type="zerowidth"
       linejoin_type="round"
       miter_limit="4"
       end_linecap_type="zerowidth"
       cusp_linecap_type="round" />
    <inkscape:path-effect
       effect="powerstroke"
       id="path-effect3732-9-4"
       is_visible="true"
       offset_points="0,-0.61164816"
       sort_points="true"
       interpolator_type="Linear"
       interpolator_beta="0.2"
       start_linecap_type="zerowidth"
       linejoin_type="round"
       miter_limit="4"
       end_linecap_type="zerowidth"
       cusp_linecap_type="round" />
    <inkscape:path-effect
       effect="skeletal"
       id="path-effect4315"
       is_visible="true"
       pattern="m 277.70218,249.20696 c 0,-2.76 2.24,-5 5,-5 2.76,0 5,2.24 5,5 0,2.76 -2.24,5 -5,5 -2.76,0 -5,-2.24 -5,-5 z"
       copytype="single_stretched"
       prop_scale="1"
       scale_y_rel="false"
       spacing="0"
       normal_offset="0"
       tang_offset="0"
       prop_units="false"
       vertical_pattern="false"
       fuse_tolerance="0" />
    <inkscape:path-effect
       effect="powerstroke"
       id="path-effect3728-4-1"
       is_visible="true"
       offset_points="0.14331775,-0.69759723"
       sort_points="true"
       interpolator_type="Linear"
       interpolator_beta="0.2"
       start_linecap_type="zerowidth"
       linejoin_type="round"
       miter_limit="4"
       end_linecap_type="zerowidth"
       cusp_linecap_type="round" />
    <inkscape:path-effect
       effect="powerstroke"
       id="path-effect3732-93-0"
       is_visible="true"
       offset_points="0,-0.41222382"
       sort_points="true"
       interpolator_type="Linear"
       interpolator_beta="0.2"
       start_linecap_type="zerowidth"
       linejoin_type="round"
       miter_limit="4"
       end_linecap_type="zerowidth"
       cusp_linecap_type="round" />
    <inkscape:path-effect
       effect="powerstroke"
       id="path-effect3732-9-4-6"
       is_visible="true"
       offset_points="0,-0.41222382"
       sort_points="true"
       interpolator_type="Linear"
       interpolator_beta="0.2"
       start_linecap_type="zerowidth"
       linejoin_type="round"
       miter_limit="4"
       end_linecap_type="zerowidth"
       cusp_linecap_type="round" />
    <inkscape:path-effect
       effect="skeletal"
       id="path-effect4347"
       is_visible="true"
       pattern="m 94.506894,109.019 c 0,-2.76 2.24,-5 5,-5 2.759996,0 4.999996,2.24 4.999996,5 0,2.76 -2.24,5 -4.999996,5 -2.76,0 -5,-2.24 -5,-5 z"
       copytype="single_stretched"
       prop_scale="1"
       scale_y_rel="false"
       spacing="0"
       normal_offset="0"
       tang_offset="0"
       prop_units="false"
       vertical_pattern="false"
       fuse_tolerance="0" />
    <inkscape:path-effect
       effect="skeletal"
       id="path-effect4343"
       is_visible="true"
       pattern="m 94.506894,109.019 c 0,-2.76 2.24,-5 5,-5 2.759996,0 4.999996,2.24 4.999996,5 0,2.76 -2.24,5 -4.999996,5 -2.76,0 -5,-2.24 -5,-5 z"
       copytype="single_stretched"
       prop_scale="1"
       scale_y_rel="false"
       spacing="0"
       normal_offset="0"
       tang_offset="0"
       prop_units="false"
       vertical_pattern="false"
       fuse_tolerance="0" />
    <inkscape:path-effect
       effect="skeletal"
       id="path-effect4339"
       is_visible="true"
       pattern="m 94.506894,111.03931 c 0,-2.76 2.24,-5 5,-5 2.759996,0 4.999996,2.24 4.999996,5 0,2.76 -2.24,5 -4.999996,5 -2.76,0 -5,-2.24 -5,-5 z"
       copytype="single_stretched"
       prop_scale="1"
       scale_y_rel="false"
       spacing="0"
       normal_offset="0"
       tang_offset="0"
       prop_units="false"
       vertical_pattern="false"
       fuse_tolerance="0" />
    <inkscape:path-effect
       effect="skeletal"
       id="path-effect4335"
       is_visible="true"
       pattern="m 94.506894,109.019 c 0,-2.76 2.24,-5 5,-5 2.759996,0 4.999996,2.24 4.999996,5 0,2.76 -2.24,5 -4.999996,5 -2.76,0 -5,-2.24 -5,-5 z"
       copytype="single_stretched"
       prop_scale="1"
       scale_y_rel="false"
       spacing="0"
       normal_offset="0"
       tang_offset="0"
       prop_units="false"
       vertical_pattern="false"
       fuse_tolerance="0" />
    <inkscape:path-effect
       effect="skeletal"
       id="path-effect4323"
       is_visible="true"
       pattern="m 94.506894,109.019 c 0,-2.76 2.24,-5 5,-5 2.759996,0 4.999996,2.24 4.999996,5 0,2.76 -2.24,5 -4.999996,5 -2.76,0 -5,-2.24 -5,-5 z"
       copytype="single_stretched"
       prop_scale="1"
       scale_y_rel="false"
       spacing="0"
       normal_offset="0"
       tang_offset="0"
       prop_units="false"
       vertical_pattern="false"
       fuse_tolerance="0" />
    <inkscape:path-effect
       effect="skeletal"
       id="path-effect4331"
       is_visible="true"
       pattern="m 92.486589,113.05961 c 0,-2.76 2.24,-5 5,-5 2.760001,0 5.000001,2.24 5.000001,5 0,2.76 -2.24,5 -5.000001,5 -2.76,0 -5,-2.24 -5,-5 z"
       copytype="single_stretched"
       prop_scale="1"
       scale_y_rel="false"
       spacing="0"
       normal_offset="0"
       tang_offset="0"
       prop_units="false"
       vertical_pattern="false"
       fuse_tolerance="0" />
    <inkscape:path-effect
       effect="skeletal"
       id="path-effect4319"
       is_visible="true"
       pattern="m 88.445978,109.019 c 0,-2.76 2.24,-5 5,-5 2.76,0 5,2.24 5,5 0,2.76 -2.24,5 -5,5 -2.76,0 -5,-2.24 -5,-5 z"
       copytype="single_stretched"
       prop_scale="1"
       scale_y_rel="false"
       spacing="0"
       normal_offset="0"
       tang_offset="0"
       prop_units="false"
       vertical_pattern="false"
       fuse_tolerance="0" />
    <inkscape:path-effect
       effect="skeletal"
       id="path-effect4315-1"
       is_visible="true"
       pattern="m 77.713107,112.93334 c 0,-2.76 2.24,-5 5,-5 2.76,0 5,2.24 5,5 0,2.76 -2.24,5 -5,5 -2.76,0 -5,-2.24 -5,-5 z"
       copytype="single_stretched"
       prop_scale="1"
       scale_y_rel="false"
       spacing="0"
       normal_offset="0"
       tang_offset="0"
       prop_units="false"
       vertical_pattern="false"
       fuse_tolerance="0" />
  </defs>
  <sodipodi:namedview
     id="base"
     pagecolor="#ffffff"
     bordercolor="#666666"
     borderopacity="1.0"
     inkscape:pageopacity="0.0"
     inkscape:pageshadow="2"
     inkscape:zoom="0.98994949"
     inkscape:cx="203.78863"
     inkscape:cy="663.50247"
     inkscape:document-units="px"
     inkscape:current-layer="layer1"
     showgrid="false"
     inkscape:window-width="1366"
     inkscape:window-height="706"
     inkscape:window-x="-8"
     inkscape:window-y="-8"
     inkscape:window-maximized="1" />
  <metadata
     id="metadata3971">
    <rdf:RDF>
      <cc:Work
         rdf:about="">
        <dc:format>image/svg+xml</dc:format>
        <dc:type
           rdf:resource="http://purl.org/dc/dcmitype/StillImage" />
        <dc:title></dc:title>
      </cc:Work>
    </rdf:RDF>
  </metadata>
  <g
     inkscape:label="Layer 1"
     inkscape:groupmode="layer"
     id="layer1">
    <path
       style="font-style:normal;font-variant:normal;font-weight:bold;font-stretch:normal;font-size:medium;line-height:125%;font-family:'Tekton Pro';-inkscape-font-specification:'Tekton Pro Bold';letter-spacing:0px;word-spacing:0px;fill:#000000;fill-opacity:1;stroke:none;stroke-width:1px;stroke-linecap:butt;stroke-linejoin:miter;stroke-opacity:1"
       d="m 469.21938,251.56173 c -1.80867,0 -2.13477,1.4885 -2.13477,2.91407 0,0.61982 0.25273,1.48645 0.43359,1.73437 l 0,31.36328 c -0.32555,0.49586 -0.36132,1.36301 -0.36132,1.79688 0,2.6652 1.12207,3.22265 1.99023,3.22265 1.44694,0 2.13281,-0.93027 2.13281,-3.09961 0,-0.6818 -0.28796,-1.4251 -0.39648,-2.04492 l 0,-7.68554 0.0723,-0.0625 c 0.97668,2.16935 1.66444,3.4092 2.20704,4.46289 l 3.72461,6.88085 c 0.21705,1.11568 0.65067,1.79688 1.26562,1.79688 1.41076,0 2.2793,-1.36269 2.2793,-3.16016 0,-1.3016 -0.6506,-2.16888 -1.33789,-2.04492 l -5.57032,-10.22851 5.13672,-9.04883 c 0.5426,0 1.22852,-0.8674 1.22852,-2.29297 0,-1.54954 -0.61479,-3.03711 -1.88086,-3.03711 -0.75964,0 -1.33687,0.92873 -1.37305,1.98242 l -3.29297,5.45508 c -0.65113,1.17765 -1.33769,2.4791 -2.38672,4.64844 l -0.0723,-0.0625 0,-19.08985 c 0.21705,-0.3719 0.28906,-1.11547 0.28906,-1.61132 0,-1.98341 -0.57852,-2.78907 -1.95312,-2.78907 z m -183.15235,0.0625 c -1.2299,0 -2.16992,1.11454 -2.16992,2.66407 0,0.9917 0.14413,1.79752 0.50586,2.10742 l 0,11.28125 c -0.65112,-0.74376 -1.41098,-1.05469 -2.42383,-1.05469 -4.59403,0 -10.38086,9.73181 -10.38086,19.46289 0,4.83456 1.84429,7.31445 3.97852,7.31445 3.18326,0 7.05367,-4.27717 8.82617,-8.92578 l 0,4.27735 c -0.18087,0.24793 -0.17969,0.80596 -0.17969,1.42578 0,1.67348 0.57871,2.47851 1.8086,2.47851 1.51929,0 2.20703,-0.68208 2.20703,-2.60351 0,-0.74378 -0.28984,-1.36288 -0.47071,-1.54883 l 0,-31.92188 0.10743,-2.10546 c 0,-1.48755 -0.61487,-2.85157 -1.8086,-2.85157 z m 25.63867,0 c -1.7725,0 -2.20703,0.68051 -2.20703,3.34571 0,0.74378 0.21859,1.54958 0.36329,2.10742 l 0,30.86719 c -0.18087,0.55782 -0.32618,1.05349 -0.32618,1.61132 0,1.9834 0.97628,3.03711 2.09766,3.03711 1.26607,0 2.16992,-1.54982 2.16992,-2.60351 0,-0.6818 -0.18021,-1.30155 -0.57812,-1.85938 l 0,-30.86523 c 0.32556,-0.74378 0.54296,-1.61286 0.54296,-2.72852 0,-1.85943 -1.08581,-2.91211 -2.0625,-2.91211 z m 131.76563,0 c -1.7725,0 -2.20703,0.68051 -2.20703,3.34571 0,0.74378 0.21663,1.54958 0.36133,2.10742 l 0,30.86719 c -0.18087,0.55782 -0.32618,1.05349 -0.32617,1.61132 0,1.9834 0.97822,3.03711 2.0996,3.03711 1.26606,0 2.16993,-1.54982 2.16993,-2.60351 0,-0.6818 -0.18023,-1.30155 -0.57813,-1.85938 l 0,-30.86523 c 0.32556,-0.74378 0.54102,-1.61286 0.54102,-2.72852 0,-1.85943 -1.08386,-2.91211 -2.06055,-2.91211 z m -55.75977,0.3086 c -2.35127,0 -5.93225,1.3015 -7.99414,2.78906 0.0361,-1.11567 -0.58012,-1.91992 -1.41211,-1.91992 -1.12137,0 -2.3496,0.86776 -2.34961,3.03711 0,0.6198 0.10718,1.3001 0.32422,1.91992 l 0,30.0625 c -0.39791,0.24794 -0.6875,1.1773 -0.6875,2.29297 0,1.79746 0.68783,2.78906 2.13477,2.78906 4.70255,0 17.61719,-5.76384 17.61719,-19.08984 0,-4.02879 -2.27938,-7.87305 -5.67969,-7.87305 -0.39791,0 -0.75928,0.0635 -1.19336,0.1875 l 0,-0.125 c 2.67684,-2.04538 4.01562,-5.14387 4.01563,-8.80078 0,-3.09907 -2.02622,-5.26953 -4.7754,-5.26953 z m -156.58594,0.24804 c -1.0852,0 -1.80859,0.80726 -1.80859,2.04688 0,0.74378 0.10742,1.92028 0.10742,2.66406 -0.32556,5.95021 -6.54712,16.36334 -8.0664,25.47461 l -0.10743,0 c -1.26607,-9.23523 -7.41585,-21.94121 -7.56054,-27.51953 0,-1.42558 -0.5798,-2.35599 -1.70118,-2.41797 -1.22989,0.0619 -1.98929,0.86828 -1.95312,3.09961 l 0,32.23047 c -0.21704,0.3719 -0.28906,1.24008 -0.28906,1.92187 0,1.61152 0.57955,2.91211 1.91797,2.91211 1.33841,0 1.98828,-1.24004 1.98828,-2.85156 0,-1.05368 -0.18038,-1.73409 -0.4336,-2.16797 0,-7.0039 -8.5e-4,-14.19429 -0.10937,-21.07422 l 0.10937,0 c 2.42362,7.62371 5.89649,17.85087 5.89649,22.4375 0,1.92141 0.50704,3.34766 2.0625,3.34766 1.04903,0 1.77242,-0.6204 1.80859,-2.16992 0.10852,-4.46267 4.84717,-16.98311 7.01758,-23.36719 l 0.0723,0 c -0.10852,7.18984 -0.10938,14.44141 -0.10938,21.44531 -0.25321,0.43387 -0.39844,1.11611 -0.39844,1.92188 0,1.54952 0.54337,2.47851 1.91797,2.47851 1.0852,0 2.13477,-0.99069 2.13477,-2.91211 0,-0.61981 -0.073,-1.30246 -0.32617,-1.73632 l 0,-30.86719 c 0.10851,-0.43388 0.2539,-1.17758 0.2539,-1.85938 0,-1.85945 -0.79602,-3.03711 -2.42383,-3.03711 z m 187.43165,0.74414 c -1.44694,0 -2.53125,2.16908 -2.53125,4.4004 0,2.54124 0.57893,4.71093 1.59179,4.71093 1.98954,0 2.24219,-3.22311 2.24219,-5.14453 0,-1.98341 -4.9e-4,-3.9668 -1.30273,-3.9668 z m -32.18555,3.9043 c 2.09806,0 2.60547,0.99279 2.60547,2.23242 0,3.71888 -5.20936,7.68475 -9.22461,8.05664 l 0,-7.3125 c 1.48311,-1.48756 4.81046,-2.97656 6.61914,-2.97656 z m -49.7207,7.25195 c -1.12138,0 -2.24219,1.30139 -2.24219,2.54102 0,0.80576 0.10819,1.30351 0.28906,1.86133 l 0,4.95703 c -0.36174,1.54954 -0.54297,2.604 -0.54297,3.5957 0,0.9917 0.25358,1.735 0.54297,2.04492 l 0,9.66993 c -0.32557,0.49585 -0.43359,0.99059 -0.43359,1.73437 0,1.48756 0.90426,2.10742 1.80859,2.10742 0.97669,0 2.24219,-0.61895 2.24219,-2.23047 0,-0.6818 -0.0731,-1.05442 -0.25391,-1.48828 l 0,-13.01562 c 3.43648,-4.95852 4.77498,-5.76367 5.13672,-5.76367 0.25321,0 0.83203,0.74386 0.83203,1.17773 l 0,17.35352 c -0.18087,0.49585 -0.32422,0.92952 -0.32422,1.61132 0,1.48754 0.61385,2.35547 1.84376,2.35547 1.33841,0 2.06249,-0.68208 2.0625,-2.60351 0,-0.86774 -0.14445,-1.23944 -0.2168,-1.61133 l 0,-20.20508 c 0,-1.98341 -1.41065,-4.0918 -2.71289,-4.0918 -1.30224,0 -2.93141,1.2394 -6.6211,6.50782 l 0,-2.41602 c 0.14469,-0.43388 0.36329,-1.05413 0.36329,-1.92187 0,-1.30161 -0.39884,-2.16993 -1.77344,-2.16993 z m 121.71679,0.0625 c -4.34082,0 -9.69335,4.71071 -9.69335,11.21875 0,3.22303 1.23021,5.76368 3.18359,5.76368 1.70014,0 2.85672,-0.68148 4.33984,-1.36328 1.41076,-0.6198 2.31527,-1.36329 3.32813,-1.36329 0.97668,0 1.48242,0.9295 1.48242,2.54102 0,4.77256 -4.33997,7.4375 -6.83594,7.4375 -0.97668,0 -1.8092,-0.74348 -2.13476,-1.36328 0.0724,-0.24794 0.10937,-0.49531 0.10937,-0.86719 0,-0.55784 -0.28987,-1.61133 -1.30273,-1.61133 -1.2299,0 -1.8086,1.54969 -1.8086,3.28516 0,2.91313 2.46005,5.20508 4.99219,5.20508 2.78536,0 10.3457,-3.22167 10.3457,-13.13867 0,-4.09078 -1.77295,-6.26172 -3.94336,-6.26172 -1.33842,0 -2.56766,0.74541 -4.05078,1.36523 -1.33841,0.55782 -2.45996,1.36328 -3.32812,1.36328 -0.65113,0 -1.01367,-0.61963 -1.01367,-1.61133 0,-2.78915 2.7489,-6.01367 6.33007,-6.01367 1.55545,0 1.77328,0.31172 1.91797,0.6836 0.14469,0.3719 0.25224,0.68164 0.86719,0.68164 0.86816,0 1.41211,-0.93041 1.41211,-2.41797 0,-2.35529 -1.846,-3.53321 -4.19727,-3.53321 z m -210.41406,0.24805 c -3.25562,0 -5.7889,1.36281 -7.66992,3.4082 -0.75964,-0.24794 -1.62696,1.36532 -1.62696,2.54297 0,1.23962 0.65138,2.91211 1.51953,2.91211 1.04904,0 1.59188,-1.24047 1.51954,-1.73633 1.33841,-1.48755 3.00265,-2.66406 4.99218,-2.66406 0.94052,0 1.30078,0.80645 1.30078,2.41797 l 0,3.16016 c -7.59642,1.48756 -11.53906,8.55346 -11.53906,14.00781 0,3.16105 1.48328,4.95898 3.32813,4.95898 3.00239,0 5.49809,-2.16935 8.0664,-7.0039 l 0.0723,0 0,2.78906 c -0.14469,0.49585 -0.28906,0.92851 -0.28906,1.48633 0,1.11566 0.3258,1.98437 1.51953,1.98437 1.12137,0 2.38672,-0.37103 2.38672,-2.23047 0,-0.61982 -0.10819,-1.24036 -0.28906,-1.48828 l 0,-18.96679 c 0,-3.53294 -1.44617,-5.57813 -3.29102,-5.57813 z m 54.04688,0 c -3.25562,0 -5.78695,1.36281 -7.66797,3.4082 -0.75964,-0.24794 -1.62695,1.36532 -1.62696,2.54297 0,1.23962 0.64942,2.91211 1.51758,2.91211 1.04903,0 1.59187,-1.24047 1.51953,-1.73633 1.33841,-1.48755 3.00264,-2.66406 4.99219,-2.66406 0.9405,0 1.30274,0.80645 1.30274,2.41797 l 0,3.16016 c -7.59643,1.48756 -11.53907,8.55346 -11.53907,14.00781 0,3.16105 1.48328,4.95898 3.32813,4.95898 3.00239,0 5.49809,-2.16935 8.0664,-7.0039 l 0.0723,0 0,2.78906 c -0.1447,0.49585 -0.28906,0.92851 -0.28906,1.48633 0,1.11566 0.32581,1.98437 1.51953,1.98437 1.12138,0 2.38672,-0.37103 2.38672,-2.23047 0,-0.61982 -0.10818,-1.24036 -0.28906,-1.48828 l 0,-18.96679 c 0,-3.53294 -1.44813,-5.57813 -3.29297,-5.57813 z m 59.56054,0 c -3.25562,0 -5.78891,1.36281 -7.66992,3.4082 -0.75965,-0.24794 -1.62695,1.36532 -1.62695,2.54297 0,1.23962 0.65136,2.91211 1.51953,2.91211 1.04902,0 1.59187,-1.24047 1.51953,-1.73633 1.33841,-1.48755 3.00069,-2.66406 4.99024,-2.66406 0.9405,0 1.30273,0.80645 1.30273,2.41797 l 0,3.16016 c -7.59643,1.48756 -11.53906,8.55346 -11.53906,14.00781 0,3.16105 1.48327,4.95898 3.32812,4.95898 3.00239,0 5.49809,-2.16935 8.06641,-7.0039 l 0.0723,0 0,2.78906 c -0.14469,0.49585 -0.28906,0.92851 -0.28906,1.48633 0,1.11566 0.32581,1.98437 1.51953,1.98437 1.12138,0 2.38672,-0.37103 2.38672,-2.23047 0,-0.61982 -0.10819,-1.24036 -0.28906,-1.48828 l 0,-18.96679 c 0,-3.53294 -1.44618,-5.57813 -3.29102,-5.57813 z m 72.20508,0 c -3.25561,0 -5.78695,1.36281 -7.66797,3.4082 -0.75964,-0.24794 -1.6289,1.36532 -1.6289,2.54297 0,1.23962 0.65137,2.91211 1.51953,2.91211 1.04903,0 1.59187,-1.24047 1.51953,-1.73633 1.33841,-1.48755 3.00265,-2.66406 4.99219,-2.66406 0.94051,0 1.30078,0.80645 1.30078,2.41797 l 0,3.16016 c -7.59642,1.48756 -11.53906,8.55346 -11.53906,14.00781 0,3.16105 1.48327,4.95898 3.32812,4.95898 3.0024,0 5.4981,-2.16935 8.06641,-7.0039 l 0.0723,0 0,2.78906 c -0.14469,0.49585 -0.28906,0.92851 -0.28906,1.48633 0,1.11566 0.32581,1.98437 1.51953,1.98437 1.12138,0 2.38672,-0.37103 2.38672,-2.23047 0,-0.61982 -0.10819,-1.24036 -0.28906,-1.48828 l 0,-18.96679 c 0,-3.53294 -1.44617,-5.57813 -3.29102,-5.57813 z m 59.48828,0 c -3.25561,0 -5.78696,1.36281 -7.66797,3.4082 -0.75964,-0.24794 -1.6289,1.36532 -1.6289,2.54297 0,1.23962 0.65136,2.91211 1.51953,2.91211 1.04903,0 1.59187,-1.24047 1.51953,-1.73633 1.33841,-1.48755 3.00265,-2.66406 4.99219,-2.66406 0.94051,0 1.30078,0.80645 1.30078,2.41797 l 0,3.16016 c -7.59642,1.48756 -11.53906,8.55346 -11.53906,14.00781 0,3.16105 1.48327,4.95898 3.32812,4.95898 3.00239,0 5.4981,-2.16935 8.06641,-7.0039 l 0.0723,0 0,2.78906 c -0.14469,0.49585 -0.28906,0.92851 -0.28906,1.48633 0,1.11566 0.32581,1.98437 1.51953,1.98437 1.12138,0 2.38867,-0.37103 2.38867,-2.23047 0,-0.61982 -0.11014,-1.24036 -0.29101,-1.48828 l 0,-18.96679 c 0,-3.53294 -1.44618,-5.57813 -3.29102,-5.57813 z m -167.26562,0.3711 c -4.73872,0 -9.47656,8.30545 -9.47656,19.83398 0,6.3841 2.35104,8.67773 5.42578,8.67773 5.93245,0 9.07812,-7.25084 9.07812,-8.98632 0,-1.23962 -0.28853,-2.72852 -1.62695,-2.72852 -1.19372,0 -1.91711,1.30296 -1.8086,2.72852 -0.65112,1.6735 -2.75012,4.15234 -5.24609,4.15234 -1.55546,0 -2.49414,-1.23882 -2.49414,-4.33789 0,-1.23962 0.071,-2.35596 0.25195,-3.34766 l 1.66407,-0.49609 c 8.39224,-2.54124 9.51367,-5.08193 9.51367,-7.87109 0,-2.41727 -1.19365,-7.62501 -5.28125,-7.625 z m 74.38672,0.31054 c -1.12137,0 -2.13477,0.55814 -2.13477,2.60352 0,0.61982 0.2168,1.1164 0.2168,1.48828 l 0,18.7168 c 0,2.85113 1.66431,5.39308 3.18359,5.45507 2.49597,0 4.6672,-2.66447 6.22266,-5.51562 l 0,1.42578 c -0.0723,0.37189 -0.29102,0.92799 -0.29102,1.42383 0,1.23964 0.47136,1.92187 1.62891,1.92187 1.51929,0 2.31445,-0.92939 2.31445,-2.29297 0,-0.61982 -0.17952,-1.23943 -0.32422,-1.61132 l 0,-19.95899 c 0.25322,-3.16105 -0.79752,-3.4707 -1.95507,-3.4707 -1.19374,0 -1.62696,0.62039 -1.62696,2.16992 0,0.49586 0.10828,0.9294 0.2168,1.36328 l 0,13.38867 c -1.41077,2.9751 -3.61776,5.51563 -4.84766,5.51563 -0.57878,0 -1.15625,-1.11612 -1.15625,-1.92188 l 0,-16.73437 c 0.1447,-0.3719 0.28907,-0.86846 0.28907,-1.48828 0,-1.85944 -1.01286,-2.47852 -1.73633,-2.47852 z m 17.89257,0.0625 c -1.80867,0 -2.64062,1.23949 -2.64062,3.71875 0,0.80575 0.28881,1.9216 0.50586,2.35547 l 0,25.53516 c 0,4.46266 -0.72299,6.26172 -2.16992,6.26172 -0.75964,0 -1.41084,-0.93057 -1.66406,-1.73633 0.28939,-2.35529 -0.75997,-3.09961 -1.44727,-3.09961 -1.22989,0 -1.80859,1.86075 -1.80859,3.6582 0,1.61152 1.59297,6.13477 4.88476,6.13477 3.03856,0 5.57031,-3.22152 5.57031,-9.85352 l 0,-26.90039 c 0.2894,-0.74378 0.54297,-1.55075 0.54297,-2.48047 0,-2.29331 -0.76057,-3.59375 -1.77344,-3.59375 z M 266.73696,265.259 c -7.66877,0 -12.33399,11.28219 -12.33399,21.19922 0,3.84285 1.19316,6.9414 3.97852,6.9414 2.71301,0 5.86072,-3.90433 7.27148,-9.97851 0,3.09907 -0.0371,6.25835 -0.0371,9.35742 0,6.19815 -2.2432,8.12109 -3.94336,8.12109 -1.01286,0 -2.02568,-0.43447 -2.64062,-1.24023 -0.1447,-1.11566 -0.68677,-1.79688 -1.33789,-1.79688 -0.94051,0 -1.5918,1.36322 -1.5918,3.22266 0,2.41727 2.38822,4.46289 5.39062,4.46289 3.36413,0 7.45118,-3.90544 7.45118,-12.21094 l 0,-24.91601 c 0,-2.23133 -0.7601,-3.16211 -2.20703,-3.16211 z m 59.10742,4.21484 c 1.59162,0 2.20703,1.67457 2.20703,3.16211 0,0.86775 -0.90394,1.79733 -7.30664,3.71875 1.0852,-3.96681 3.03772,-6.88086 5.09961,-6.88086 z m -60.22852,0.4336 0,0.0625 c -0.10851,2.85114 -0.47013,5.39171 -0.97656,7.62304 -1.44695,7.12786 -4.34111,10.78516 -5.82422,10.78516 -0.68729,0 -1.08398,-1.11608 -1.08398,-2.85156 0,-7.43777 3.54395,-15.61914 7.88476,-15.61914 z m 121.76953,0.125 c 3.11092,0 4.3418,2.602 4.3418,4.52343 0,7.31381 -7.30824,12.02523 -11.97461,12.70704 l 0,-13.57422 c 0,-0.80575 0.32605,-1.30208 1.30273,-1.92188 1.41077,-0.80576 4.34054,-1.73437 6.33008,-1.73437 z m -105.36914,1.30078 c 1.55545,0 2.31445,1.7365 2.31445,4.09179 0,3.53295 -1.08532,5.33077 -2.49609,7.74805 -1.51928,2.72718 -3.32711,4.95703 -5.09961,4.95703 -1.33842,0 -1.70117,-1.36374 -1.70117,-3.28515 0,-5.08249 4.05237,-13.51172 6.98242,-13.51172 z m -34.09961,6.94336 0,1.91992 c 0,2.85115 -4.26848,8.24414 -6.94531,8.24414 -0.68731,0 -1.19336,-0.3721 -1.19336,-1.42578 0,-2.78917 3.3276,-7.74658 8.13867,-8.73828 z m 54.04883,0 0,1.91992 c 0,2.85115 -4.26848,8.24414 -6.94531,8.24414 -0.6873,0 -1.19336,-0.3721 -1.19336,-1.42578 0,-2.78917 3.3276,-7.74658 8.13867,-8.73828 z m 59.55859,0 0,1.91992 c 0,2.85115 -4.26847,8.24414 -6.94531,8.24414 -0.68729,0 -1.19336,-0.3721 -1.19336,-1.42578 0,-2.78917 3.32761,-7.74658 8.13867,-8.73828 z m 72.20508,0 0,1.91992 c 0,2.85115 -4.26848,8.24414 -6.94531,8.24414 -0.6873,0 -1.19336,-0.3721 -1.19336,-1.42578 0,-2.78917 3.32761,-7.74658 8.13867,-8.73828 z m 59.48828,0 0,1.91992 c 0,2.85115 -4.26847,8.24414 -6.94531,8.24414 -0.68729,0 -1.19336,-0.3721 -1.19336,-1.42578 0,-2.78917 3.32761,-7.74658 8.13867,-8.73828 z"
       id="path6686"
       inkscape:connector-curvature="0" />
  </g>
</svg>
