<?xml version="1.0" encoding="UTF-8" standalone="no"?>
<!-- Created with Inkscape (http://www.inkscape.org/) -->

<svg
   xmlns:dc="http://purl.org/dc/elements/1.1/"
   xmlns:cc="http://creativecommons.org/ns#"
   xmlns:rdf="http://www.w3.org/1999/02/22-rdf-syntax-ns#"
   xmlns:svg="http://www.w3.org/2000/svg"
   xmlns="http://www.w3.org/2000/svg"
   xmlns:sodipodi="http://sodipodi.sourceforge.net/DTD/sodipodi-0.dtd"
   xmlns:inkscape="http://www.inkscape.org/namespaces/inkscape"
   width="210mm"
   height="297mm"
   viewBox="0 0 744.09448819 1052.3622047"
   id="svg3966"
   version="1.1"
   inkscape:version="0.91 r13725"
   sodipodi:docname="SalonPielęgnacjiPsów.svg">
  <defs
     id="defs3968">
    <inkscape:path-effect
       effect="powerstroke"
       id="path-effect3728-4"
       is_visible="true"
       offset_points="0.14331775,-1.0350786"
       sort_points="true"
       interpolator_type="Linear"
       interpolator_beta="0.2"
       start_linecap_type="zerowidth"
       linejoin_type="round"
       miter_limit="4"
       end_linecap_type="zerowidth"
       cusp_linecap_type="round" />
    <inkscape:path-effect
       effect="powerstroke"
       id="path-effect3732-93"
       is_visible="true"
       offset_points="0,-0.61164816"
       sort_points="true"
       interpolator_type="Linear"
       interpolator_beta="0.2"
       start_linecap_type="zerowidth"
       linejoin_type="round"
       miter_limit="4"
       end_linecap_type="zerowidth"
       cusp_linecap_type="round" />
    <inkscape:path-effect
       effect="powerstroke"
       id="path-effect3732-9-4"
       is_visible="true"
       offset_points="0,-0.61164816"
       sort_points="true"
       interpolator_type="Linear"
       interpolator_beta="0.2"
       start_linecap_type="zerowidth"
       linejoin_type="round"
       miter_limit="4"
       end_linecap_type="zerowidth"
       cusp_linecap_type="round" />
    <inkscape:path-effect
       effect="skeletal"
       id="path-effect4315"
       is_visible="true"
       pattern="m 277.70218,249.20696 c 0,-2.76 2.24,-5 5,-5 2.76,0 5,2.24 5,5 0,2.76 -2.24,5 -5,5 -2.76,0 -5,-2.24 -5,-5 z"
       copytype="single_stretched"
       prop_scale="1"
       scale_y_rel="false"
       spacing="0"
       normal_offset="0"
       tang_offset="0"
       prop_units="false"
       vertical_pattern="false"
       fuse_tolerance="0" />
    <inkscape:path-effect
       effect="powerstroke"
       id="path-effect3728-4-1"
       is_visible="true"
       offset_points="0.14331775,-0.69759723"
       sort_points="true"
       interpolator_type="Linear"
       interpolator_beta="0.2"
       start_linecap_type="zerowidth"
       linejoin_type="round"
       miter_limit="4"
       end_linecap_type="zerowidth"
       cusp_linecap_type="round" />
    <inkscape:path-effect
       effect="powerstroke"
       id="path-effect3732-93-0"
       is_visible="true"
       offset_points="0,-0.41222382"
       sort_points="true"
       interpolator_type="Linear"
       interpolator_beta="0.2"
       start_linecap_type="zerowidth"
       linejoin_type="round"
       miter_limit="4"
       end_linecap_type="zerowidth"
       cusp_linecap_type="round" />
    <inkscape:path-effect
       effect="powerstroke"
       id="path-effect3732-9-4-6"
       is_visible="true"
       offset_points="0,-0.41222382"
       sort_points="true"
       interpolator_type="Linear"
       interpolator_beta="0.2"
       start_linecap_type="zerowidth"
       linejoin_type="round"
       miter_limit="4"
       end_linecap_type="zerowidth"
       cusp_linecap_type="round" />
    <inkscape:path-effect
       effect="skeletal"
       id="path-effect4347"
       is_visible="true"
       pattern="m 94.506894,109.019 c 0,-2.76 2.24,-5 5,-5 2.759996,0 4.999996,2.24 4.999996,5 0,2.76 -2.24,5 -4.999996,5 -2.76,0 -5,-2.24 -5,-5 z"
       copytype="single_stretched"
       prop_scale="1"
       scale_y_rel="false"
       spacing="0"
       normal_offset="0"
       tang_offset="0"
       prop_units="false"
       vertical_pattern="false"
       fuse_tolerance="0" />
    <inkscape:path-effect
       effect="skeletal"
       id="path-effect4343"
       is_visible="true"
       pattern="m 94.506894,109.019 c 0,-2.76 2.24,-5 5,-5 2.759996,0 4.999996,2.24 4.999996,5 0,2.76 -2.24,5 -4.999996,5 -2.76,0 -5,-2.24 -5,-5 z"
       copytype="single_stretched"
       prop_scale="1"
       scale_y_rel="false"
       spacing="0"
       normal_offset="0"
       tang_offset="0"
       prop_units="false"
       vertical_pattern="false"
       fuse_tolerance="0" />
    <inkscape:path-effect
       effect="skeletal"
       id="path-effect4339"
       is_visible="true"
       pattern="m 94.506894,111.03931 c 0,-2.76 2.24,-5 5,-5 2.759996,0 4.999996,2.24 4.999996,5 0,2.76 -2.24,5 -4.999996,5 -2.76,0 -5,-2.24 -5,-5 z"
       copytype="single_stretched"
       prop_scale="1"
       scale_y_rel="false"
       spacing="0"
       normal_offset="0"
       tang_offset="0"
       prop_units="false"
       vertical_pattern="false"
       fuse_tolerance="0" />
    <inkscape:path-effect
       effect="skeletal"
       id="path-effect4335"
       is_visible="true"
       pattern="m 94.506894,109.019 c 0,-2.76 2.24,-5 5,-5 2.759996,0 4.999996,2.24 4.999996,5 0,2.76 -2.24,5 -4.999996,5 -2.76,0 -5,-2.24 -5,-5 z"
       copytype="single_stretched"
       prop_scale="1"
       scale_y_rel="false"
       spacing="0"
       normal_offset="0"
       tang_offset="0"
       prop_units="false"
       vertical_pattern="false"
       fuse_tolerance="0" />
    <inkscape:path-effect
       effect="skeletal"
       id="path-effect4323"
       is_visible="true"
       pattern="m 94.506894,109.019 c 0,-2.76 2.24,-5 5,-5 2.759996,0 4.999996,2.24 4.999996,5 0,2.76 -2.24,5 -4.999996,5 -2.76,0 -5,-2.24 -5,-5 z"
       copytype="single_stretched"
       prop_scale="1"
       scale_y_rel="false"
       spacing="0"
       normal_offset="0"
       tang_offset="0"
       prop_units="false"
       vertical_pattern="false"
       fuse_tolerance="0" />
    <inkscape:path-effect
       effect="skeletal"
       id="path-effect4331"
       is_visible="true"
       pattern="m 92.486589,113.05961 c 0,-2.76 2.24,-5 5,-5 2.760001,0 5.000001,2.24 5.000001,5 0,2.76 -2.24,5 -5.000001,5 -2.76,0 -5,-2.24 -5,-5 z"
       copytype="single_stretched"
       prop_scale="1"
       scale_y_rel="false"
       spacing="0"
       normal_offset="0"
       tang_offset="0"
       prop_units="false"
       vertical_pattern="false"
       fuse_tolerance="0" />
    <inkscape:path-effect
       effect="skeletal"
       id="path-effect4319"
       is_visible="true"
       pattern="m 88.445978,109.019 c 0,-2.76 2.24,-5 5,-5 2.76,0 5,2.24 5,5 0,2.76 -2.24,5 -5,5 -2.76,0 -5,-2.24 -5,-5 z"
       copytype="single_stretched"
       prop_scale="1"
       scale_y_rel="false"
       spacing="0"
       normal_offset="0"
       tang_offset="0"
       prop_units="false"
       vertical_pattern="false"
       fuse_tolerance="0" />
    <inkscape:path-effect
       effect="skeletal"
       id="path-effect4315-1"
       is_visible="true"
       pattern="m 77.713107,112.93334 c 0,-2.76 2.24,-5 5,-5 2.76,0 5,2.24 5,5 0,2.76 -2.24,5 -5,5 -2.76,0 -5,-2.24 -5,-5 z"
       copytype="single_stretched"
       prop_scale="1"
       scale_y_rel="false"
       spacing="0"
       normal_offset="0"
       tang_offset="0"
       prop_units="false"
       vertical_pattern="false"
       fuse_tolerance="0" />
  </defs>
  <sodipodi:namedview
     id="base"
     pagecolor="#ffffff"
     bordercolor="#666666"
     borderopacity="1.0"
     inkscape:pageopacity="0.0"
     inkscape:pageshadow="2"
     inkscape:zoom="0.98994949"
     inkscape:cx="241.66935"
     inkscape:cy="663.50247"
     inkscape:document-units="px"
     inkscape:current-layer="layer1"
     showgrid="false"
     inkscape:window-width="1366"
     inkscape:window-height="706"
     inkscape:window-x="-8"
     inkscape:window-y="-8"
     inkscape:window-maximized="1" />
  <metadata
     id="metadata3971">
    <rdf:RDF>
      <cc:Work
         rdf:about="">
        <dc:format>image/svg+xml</dc:format>
        <dc:type
           rdf:resource="http://purl.org/dc/dcmitype/StillImage" />
        <dc:title></dc:title>
      </cc:Work>
    </rdf:RDF>
  </metadata>
  <g
     inkscape:label="Layer 1"
     inkscape:groupmode="layer"
     id="layer1">
    <path
       style="font-style:normal;font-variant:normal;font-weight:bold;font-stretch:normal;font-size:medium;line-height:125%;font-family:'Tekton Pro';-inkscape-font-specification:'Tekton Pro Bold';letter-spacing:0px;word-spacing:0px;fill:#000000;fill-opacity:1;stroke:none;stroke-width:1px;stroke-linecap:butt;stroke-linejoin:miter;stroke-opacity:1"
       d="M 520.64453 240.40625 C 519.54789 240.40625 518.34735 241.27816 518.71289 243.45703 L 514.69141 250.25586 C 514.06477 250.43016 513.49023 251.73639 513.49023 253.13086 C 513.49023 254.96112 514.27354 256.26953 515.47461 256.26953 C 516.67568 256.26953 517.61575 254.87346 517.66797 253.30469 L 521.58398 246.68164 C 522.36729 246.24587 522.78516 245.02608 522.78516 243.71875 C 522.78516 241.88851 522.00226 240.40625 520.64453 240.40625 z M 153.61914 242.23633 C 151.06033 242.23633 150.43359 243.1957 150.43359 246.94336 C 150.43359 247.98922 150.74815 249.12187 150.95703 249.90625 L 150.95703 293.31055 C 150.69593 294.09493 150.48633 294.79177 150.48633 295.57617 C 150.48633 298.36512 151.89678 299.8457 153.51562 299.8457 C 155.34334 299.8457 156.64844 297.66717 156.64844 296.18555 C 156.64844 295.22684 156.38693 294.35471 155.8125 293.57031 L 155.8125 250.16797 C 156.28249 249.12213 156.5957 247.90275 156.5957 246.33398 C 156.5957 243.71933 155.0291 242.23633 153.61914 242.23633 z M 287.74023 242.23633 C 285.18142 242.23633 284.55469 243.1957 284.55469 246.94336 C 284.55469 247.98922 284.86925 249.12187 285.07812 249.90625 L 285.07812 293.31055 C 284.81702 294.09493 284.60742 294.79177 284.60742 295.57617 C 284.60742 298.36512 286.01788 299.8457 287.63672 299.8457 C 289.46444 299.8457 290.76953 297.66717 290.76953 296.18555 C 290.76953 295.22684 290.50802 294.35471 289.93359 293.57031 L 289.93359 250.16797 C 290.40358 249.12213 290.7168 247.90275 290.7168 246.33398 C 290.7168 243.71933 289.15019 242.23633 287.74023 242.23633 z M 108.32617 242.84766 C 99.23977 242.84766 91.773437 254.52505 91.773438 264.19922 C 91.773438 271.95598 94.487646 274.74609 98.195312 274.74609 C 100.44081 274.74609 102.7396 274.04878 105.45508 272.6543 C 108.17056 271.43414 110.1554 270.64844 112.45312 270.64844 C 114.59417 270.64844 115.74219 271.86954 115.74219 275.61719 C 115.74219 279.19054 115.27262 282.24084 113.60156 284.85547 C 110.78164 290.08475 105.50629 293.74609 101.38086 293.74609 C 99.396469 293.74609 98.19593 292.52507 97.464844 290.17188 C 96.838194 288.16733 96.473287 284.59375 94.75 284.59375 C 92.974502 284.59375 91.876953 286.94738 91.876953 289.73633 C 91.876953 292.61243 94.279164 300.7168 101.01562 300.7168 C 107.02101 300.7168 114.17474 296.27287 118.03906 288.3418 C 119.91901 284.68131 120.96484 280.32303 120.96484 275.09375 C 120.96484 267.24984 117.5174 263.50195 113.13086 263.50195 C 110.46761 263.50195 108.17107 264.37358 105.50781 265.59375 C 102.74011 266.90107 100.75514 267.59961 99.292969 267.59961 C 97.935232 267.59961 96.994141 266.46569 96.994141 263.32812 C 96.994141 257.14013 102.00809 249.82031 107.5957 249.82031 C 109.78897 249.82031 111.35526 250.8653 111.92969 252.25977 C 111.92969 253.91571 112.81743 255.31055 114.90625 255.31055 C 116.62954 255.31055 117.25586 253.56779 117.25586 251.65039 C 117.25586 247.9899 113.07825 242.84766 108.32617 242.84766 z M 240.05859 243.2832 C 234.20988 243.2832 230.65874 246.59484 227.73438 249.03516 L 227.73438 248.07617 C 228.09993 245.37437 227.10794 243.63086 225.17578 243.63086 C 224.13136 243.63086 222.46094 245.20006 222.46094 247.37891 C 222.46094 248.25046 222.56456 249.20949 222.77344 249.73242 L 222.77344 252.86914 C 221.93791 253.74068 221.25977 255.1351 221.25977 257.48828 C 221.25977 259.84145 221.93791 261.06203 222.77344 261.23633 L 222.77344 293.31055 C 222.30345 294.26924 222.14844 294.96465 222.14844 296.09766 C 222.14844 298.10221 223.03504 299.8457 224.81055 299.8457 C 227.7349 299.8457 228.36133 299.1493 228.36133 296.01172 C 228.36133 295.14018 227.996 294.26901 227.78711 293.74609 L 227.78711 275.9668 C 239.43232 272.91639 247.37109 262.10849 247.37109 252.52148 C 247.37109 246.85643 244.91512 243.2832 240.05859 243.2832 z M 471.17578 243.2832 C 465.32706 243.2832 461.77788 246.59484 458.85352 249.03516 L 458.85352 248.07617 C 459.21906 245.37437 458.22513 243.63086 456.29297 243.63086 C 455.24855 243.63086 453.57812 245.20006 453.57812 247.37891 C 453.57812 248.25046 453.68175 249.20949 453.89062 249.73242 L 453.89062 252.86914 C 453.05509 253.74068 452.37695 255.1351 452.37695 257.48828 C 452.37695 259.84145 453.05509 261.06203 453.89062 261.23633 L 453.89062 293.31055 C 453.42064 294.26924 453.26563 294.96465 453.26562 296.09766 C 453.26562 298.10221 454.15223 299.8457 455.92773 299.8457 C 458.85209 299.8457 459.47852 299.1493 459.47852 296.01172 C 459.47852 295.14018 459.11318 294.26901 458.9043 293.74609 L 458.9043 275.9668 C 470.54951 272.91639 478.48828 262.10849 478.48828 252.52148 C 478.48828 246.85643 476.0323 243.2832 471.17578 243.2832 z M 424.75781 244.06641 C 422.66898 244.06641 421.10156 247.11828 421.10156 250.25586 C 421.10156 253.8292 421.93821 256.87891 423.40039 256.87891 C 426.27253 256.87891 426.63672 252.34633 426.63672 249.64453 C 426.63672 246.85559 426.63775 244.06641 424.75781 244.06641 z M 252.51367 244.58984 C 250.52928 244.58984 249.38086 248.0766 249.38086 252.52148 C 249.38086 254.96182 250.05941 256.70508 251.73047 256.70508 C 253.34931 256.70508 254.86328 253.74172 254.86328 248.59961 C 254.86328 246.07212 254.02807 244.58984 252.51367 244.58984 z M 435.69336 244.58984 C 433.70897 244.58984 432.56055 248.0766 432.56055 252.52148 C 432.56055 254.96182 433.2391 256.70508 434.91016 256.70508 C 436.52901 256.70508 438.04297 253.74172 438.04297 248.59961 C 438.04297 246.07212 437.20775 244.58984 435.69336 244.58984 z M 238.44141 250.77734 C 240.948 250.77734 242.14844 252.52204 242.14844 254.43945 C 242.20074 259.49441 236.92573 266.4664 227.78711 268.73242 L 227.78711 256.70508 C 231.80811 252.60881 235.15151 250.77734 238.44141 250.77734 z M 469.55859 250.77734 C 472.06518 250.77734 473.26563 252.52204 473.26562 254.43945 C 473.31783 259.49441 468.04292 266.4664 458.9043 268.73242 L 458.9043 256.70508 C 462.92529 252.60881 466.26869 250.77734 469.55859 250.77734 z M 190.85352 259.75586 C 189.23468 259.75586 187.61719 261.58503 187.61719 263.32812 C 187.61719 264.46114 187.77405 265.15896 188.03516 265.94336 L 188.03516 272.91602 C 187.51295 275.09488 187.25195 276.57623 187.25195 277.9707 C 187.25195 279.36518 187.61739 280.40993 188.03516 280.8457 L 188.03516 294.44336 C 187.56517 295.14059 187.4082 295.83696 187.4082 296.88281 C 187.4082 298.97453 188.71401 299.8457 190.01953 299.8457 C 191.42949 299.8457 193.25586 298.975 193.25586 296.70898 C 193.25586 295.75027 193.15174 295.22727 192.89062 294.61719 L 192.89062 276.31445 C 197.8516 269.34208 199.78443 268.20898 200.30664 268.20898 C 200.67218 268.20898 201.50781 269.25515 201.50781 269.86523 L 201.50781 294.26758 C 201.24671 294.96483 201.03711 295.57647 201.03711 296.53516 C 201.03711 298.62688 201.92566 299.8457 203.70117 299.8457 C 205.63334 299.8457 206.67773 298.88735 206.67773 296.18555 C 206.67773 294.96539 206.46772 294.44285 206.36328 293.91992 L 206.36328 265.50781 C 206.36328 262.71886 204.32721 259.75586 202.44727 259.75586 C 200.56732 259.75586 198.21714 261.4981 192.89062 268.90625 L 192.89062 265.50781 C 193.0995 264.89772 193.41406 264.02485 193.41406 262.80469 C 193.41406 260.97444 192.83791 259.75586 190.85352 259.75586 z M 349.04688 259.75586 C 347.42802 259.75586 345.80859 261.58503 345.80859 263.32812 C 345.80859 264.46114 345.96545 265.15896 346.22656 265.94336 L 346.22656 272.91602 C 345.70435 275.09488 345.44336 276.57623 345.44336 277.9707 C 345.44336 279.36518 345.80879 280.40993 346.22656 280.8457 L 346.22656 294.44336 C 345.75657 295.14059 345.59961 295.83696 345.59961 296.88281 C 345.59961 298.97453 346.90542 299.8457 348.21094 299.8457 C 349.62089 299.8457 351.44922 298.975 351.44922 296.70898 C 351.44922 295.75027 351.34314 295.22727 351.08203 294.61719 L 351.08203 276.31445 C 356.043 269.34208 357.97585 268.20898 358.49805 268.20898 C 358.86359 268.20898 359.69922 269.25515 359.69922 269.86523 L 359.69922 294.26758 C 359.43811 294.96483 359.22852 295.57647 359.22852 296.53516 C 359.22852 298.62688 360.11708 299.8457 361.89258 299.8457 C 363.82475 299.8457 364.86914 298.88735 364.86914 296.18555 C 364.86914 294.96539 364.66108 294.44285 364.55664 293.91992 L 364.55664 265.50781 C 364.55664 262.71886 362.51861 259.75586 360.63867 259.75586 C 358.75872 259.75586 356.40854 261.4981 351.08203 268.90625 L 351.08203 265.50781 C 351.29091 264.89772 351.60547 264.02485 351.60547 262.80469 C 351.60547 260.97444 351.03126 259.75586 349.04688 259.75586 z M 491.61133 259.8418 C 485.34485 259.8418 477.61719 266.46595 477.61719 275.61719 C 477.61719 280.14923 479.39298 283.72266 482.21289 283.72266 C 484.66726 283.72266 486.33747 282.7634 488.47852 281.80469 C 490.51513 280.93314 491.82102 279.88867 493.2832 279.88867 C 494.69316 279.88867 495.42383 281.19492 495.42383 283.46094 C 495.42383 290.17184 489.15791 293.91992 485.55469 293.91992 C 484.14472 293.91992 482.94265 292.87349 482.47266 292.00195 C 482.57711 291.65333 482.63086 291.30418 482.63086 290.78125 C 482.63086 289.99687 482.21218 288.51562 480.75 288.51562 C 478.9745 288.51562 478.13867 290.69443 478.13867 293.13477 C 478.13867 297.23104 481.69025 300.45703 485.3457 300.45703 C 489.36669 300.45703 500.28125 295.92521 500.28125 281.98047 C 500.28125 276.22826 497.72114 273.17773 494.58789 273.17773 C 492.65572 273.17773 490.88128 274.22221 488.74023 275.09375 C 486.80806 275.87815 485.18885 277.01172 483.93555 277.01172 C 482.99558 277.01172 482.47266 276.14056 482.47266 274.74609 C 482.47266 270.82413 486.44149 266.29102 491.61133 266.29102 C 493.85682 266.29102 494.17002 266.72707 494.37891 267.25 C 494.58779 267.77293 494.74507 268.20898 495.63281 268.20898 C 496.88611 268.20898 497.66992 266.90226 497.66992 264.81055 C 497.66992 261.49867 495.00567 259.8418 491.61133 259.8418 z M 139.60938 260.19141 C 134.90951 260.19141 131.25454 262.10826 128.53906 264.98438 C 127.44243 264.63574 126.18945 266.90265 126.18945 268.55859 C 126.18945 270.30168 127.12951 272.6543 128.38281 272.6543 C 129.89721 272.6543 130.68061 270.91013 130.57617 270.21289 C 132.50833 268.12118 134.90912 266.4668 137.78125 266.4668 C 139.13899 266.4668 139.66211 267.59921 139.66211 269.86523 L 139.66211 274.31055 C 128.69577 276.40227 123.00391 286.3382 123.00391 294.00781 C 123.00391 298.4527 125.14534 300.97852 127.80859 300.97852 C 132.14291 300.97852 135.74547 297.92892 139.45312 291.13086 L 139.55664 291.13086 L 139.55664 295.05273 C 139.34775 295.74996 139.13867 296.36015 139.13867 297.14453 C 139.13867 298.71332 139.60875 299.93359 141.33203 299.93359 C 142.95087 299.93359 144.7793 299.40955 144.7793 296.79492 C 144.7793 295.92337 144.62243 295.05174 144.36133 294.70312 L 144.36133 268.03516 C 144.36133 263.06735 142.27263 260.19141 139.60938 260.19141 z M 385.00586 260.19141 C 380.30599 260.19141 376.65102 262.10826 373.93555 264.98438 C 372.83892 264.63574 371.58594 266.90265 371.58594 268.55859 C 371.58594 270.30168 372.526 272.6543 373.7793 272.6543 C 375.29369 272.6543 376.07711 270.91013 375.97266 270.21289 C 377.90483 268.12118 380.30559 266.4668 383.17773 266.4668 C 384.53547 266.4668 385.05859 267.59921 385.05859 269.86523 L 385.05859 274.31055 C 374.09225 276.40227 368.40039 286.3382 368.40039 294.00781 C 368.40039 298.4527 370.54183 300.97852 373.20508 300.97852 C 377.5394 300.97852 381.14194 297.92892 384.84961 291.13086 L 384.95312 291.13086 L 384.95312 295.05273 C 384.74424 295.74996 384.53516 296.36015 384.53516 297.14453 C 384.53516 298.71332 385.00524 299.93359 386.72852 299.93359 C 388.34736 299.93359 390.17578 299.40955 390.17578 296.79492 C 390.17578 295.92337 390.01892 295.05174 389.75781 294.70312 L 389.75781 268.03516 C 389.75781 263.06735 387.66911 260.19141 385.00586 260.19141 z M 175.02148 260.36523 C 167.13615 260.36523 160.55664 271.69473 160.55664 287.12109 C 160.55664 296.88241 164.83931 300.97852 167.76367 300.97852 C 172.35909 300.97852 174.91651 299.32297 178.9375 292.69922 C 180.1908 290.60751 182.95898 284.15889 182.95898 276.83789 C 182.95898 270.56277 181.44462 260.36523 175.02148 260.36523 z M 517.7207 260.36523 C 509.83538 260.36523 503.25391 271.69473 503.25391 287.12109 C 503.25391 296.88241 507.53657 300.97852 510.46094 300.97852 C 515.05635 300.97852 517.61573 299.32297 521.63672 292.69922 C 522.89002 290.60751 525.6582 284.15889 525.6582 276.83789 C 525.6582 270.56277 524.14384 260.36523 517.7207 260.36523 z M 531.66602 260.36523 C 530.46494 260.36523 529.1582 261.76013 529.1582 264.81055 C 529.1582 265.85641 529.31465 266.90091 529.73242 267.42383 L 533.85938 295.22656 C 533.96381 298.6256 534.58871 300.02148 536.25977 300.02148 C 537.82639 300.02148 538.8199 298.9752 538.97656 295.57617 L 544.19922 276.75 L 547.90625 296.70898 C 547.95855 298.62638 548.68883 300.02148 550.41211 300.02148 C 552.60537 300.02148 553.02426 298.80068 552.71094 296.70898 C 553.59869 290.86962 554.85094 285.90138 556.57422 280.23633 C 558.0364 275.96575 558.71649 272.30546 559.08203 267.07617 C 559.49979 266.46609 559.65625 265.42012 559.65625 264.28711 C 559.65625 262.54402 558.61174 261.0625 557.46289 261.0625 C 555.84404 261.0625 554.17188 262.54379 554.17188 264.72266 C 554.17188 265.5942 554.38045 266.46535 554.53711 266.98828 C 554.69377 269.95155 553.91067 273.87489 552.9707 277.09961 C 551.92629 280.15002 550.93535 283.63514 550.51758 286.68555 L 550.41211 286.68555 L 546.80859 268.29688 C 546.80859 263.24189 545.86843 261.58594 544.40625 261.58594 C 542.68296 261.58594 541.63867 262.89314 541.63867 264.81055 C 541.63867 266.11787 541.79656 266.98955 542.16211 268.29688 L 537.04492 287.03516 L 536.93945 287.03516 L 533.96289 265.76953 C 534.17177 264.98515 534.32812 264.54903 534.32812 263.41602 C 534.32812 261.15 533.28486 260.36523 531.66602 260.36523 z M 272.66211 260.71289 C 265.8212 260.71289 258.98047 272.39275 258.98047 288.60352 C 258.98047 297.58044 262.37374 300.80469 266.8125 300.80469 C 275.37669 300.80469 279.91992 290.6083 279.91992 288.16797 C 279.91992 286.42488 279.50247 284.33203 277.57031 284.33203 C 275.84702 284.33203 274.80232 286.16342 274.95898 288.16797 C 274.01901 290.52115 270.99189 294.00781 267.38867 294.00781 C 265.14317 294.00781 263.78516 292.26399 263.78516 287.90625 C 263.78516 286.16317 263.88929 284.5937 264.15039 283.19922 L 266.55273 282.50195 C 278.66792 278.92861 280.28711 275.35555 280.28711 271.43359 C 280.28711 268.03456 278.56305 260.71289 272.66211 260.71289 z M 308.30664 260.71289 C 301.51795 260.71289 294.67773 272.39202 294.67773 288.51562 C 294.67773 297.05678 297.70609 300.28103 301.7793 300.7168 C 302.24929 300.7168 302.66817 300.63008 303.08594 300.54297 C 302.45929 302.28606 302.04102 304.46445 302.04102 306.73047 C 302.04102 312.22122 304.49556 314.83594 307.41992 314.83594 C 311.12759 314.83594 313.2168 311.43692 313.2168 308.82227 C 313.2168 306.99204 312.58934 305.68555 311.54492 305.68555 C 310.55272 305.68555 309.97852 306.46952 309.97852 307.25391 C 309.97852 307.68968 310.03184 307.86354 310.08398 308.125 C 309.82288 309.0837 308.98716 309.78125 307.68164 309.78125 C 306.48056 309.78125 305.43555 308.56119 305.43555 306.55664 C 305.43555 304.9007 305.74939 303.24456 306.48047 301.67578 C 307.26379 300.107 307.94192 299.41133 308.98633 298.62695 C 313.26842 295.57654 315.61914 289.91032 315.61914 288.08008 C 315.61914 286.33698 315.2017 284.33203 313.26953 284.33203 C 311.54625 284.33203 310.50154 286.07552 310.6582 288.08008 C 309.77045 290.43325 306.68917 293.91992 303.08594 293.91992 C 300.84045 293.91992 299.48242 292.17609 299.48242 287.81836 C 299.48242 286.16243 299.58656 284.59491 299.84766 283.11328 L 302.25 282.41602 C 314.36519 278.84269 315.98438 275.35555 315.98438 271.43359 C 315.98438 268.03456 314.26031 260.71289 308.35938 260.71289 L 308.30664 260.71289 z M 407.89844 260.71289 C 405.07853 260.71289 401.47585 264.1134 400.01367 266.90234 C 396.93265 272.21878 394.63477 276.92449 394.63477 286.94727 C 394.63477 295.1398 397.87117 301.06641 403.04102 301.06641 C 406.2787 301.06641 408.68225 299.58436 410.92773 296.62109 C 413.90431 293.04776 415.4707 287.55832 415.4707 286.59961 C 415.4707 285.2923 414.89649 282.9375 412.91211 282.9375 C 411.24105 282.9375 410.9266 284.68199 410.61328 287.03516 C 409.93441 289.21403 408.68206 291.13066 407.5332 292.26367 C 406.48879 293.30953 405.39248 294.09375 404.19141 294.09375 C 401.05816 294.09375 399.43945 290.95705 399.43945 285.64062 C 399.43945 279.71411 401.31825 274.74646 403.09375 271.7832 C 404.60815 268.99425 406.17422 267.42383 408.00195 267.42383 C 409.77745 267.42383 410.14372 268.55767 410.45703 269.60352 C 410.71814 270.64938 410.98006 271.7832 412.12891 271.7832 C 414.21774 271.7832 415.15625 269.95206 415.15625 267.51172 C 415.15625 263.76407 411.91943 260.71289 407.89844 260.71289 z M 252.19922 261.23633 C 249.01376 261.23633 248.91016 263.8507 248.91016 266.29102 C 248.91016 267.07541 249.06755 268.03566 249.38086 268.55859 L 249.38086 292.78711 C 249.17198 293.22288 248.75391 294.18122 248.75391 295.75 C 248.75391 298.27748 249.74579 299.8457 251.10352 299.8457 C 252.72237 299.8457 254.91602 298.53942 254.91602 295.57617 C 254.91602 294.53031 254.49743 293.48338 254.23633 293.13477 L 254.23633 268.20898 C 254.34077 267.68605 254.75781 266.81365 254.75781 265.33203 C 254.81011 263.50177 253.4003 261.23633 252.19922 261.23633 z M 424.33984 261.23633 C 421.72881 261.23633 420.52734 262.98061 420.52734 266.4668 C 420.52734 267.59981 420.94449 269.16726 421.25781 269.77734 L 421.25781 305.68555 C 421.25781 311.96069 420.21383 314.48828 418.125 314.48828 C 417.02837 314.48828 416.08821 313.17989 415.72266 312.04688 C 416.14042 308.735 414.62696 307.68945 413.63477 307.68945 C 411.85927 307.68945 411.02344 310.30454 411.02344 312.83203 C 411.02344 315.09804 413.32019 321.46094 418.07227 321.46094 C 422.45881 321.46094 426.11523 316.92905 426.11523 307.60352 L 426.11523 269.77734 C 426.533 268.73148 426.89844 267.59834 426.89844 266.29102 C 426.89844 263.06631 425.80202 261.23633 424.33984 261.23633 z M 435.38086 261.23633 C 432.1954 261.23633 432.08984 263.8507 432.08984 266.29102 C 432.08984 267.07541 432.24723 268.03566 432.56055 268.55859 L 432.56055 292.78711 C 432.35167 293.22288 431.93359 294.18122 431.93359 295.75 C 431.93359 298.27748 432.92547 299.8457 434.2832 299.8457 C 435.90205 299.8457 438.0957 298.53942 438.0957 295.57617 C 438.0957 294.53031 437.67712 293.48338 437.41602 293.13477 L 437.41602 268.20898 C 437.52046 267.68605 437.93945 266.81365 437.93945 265.33203 C 437.99165 263.50177 436.58193 261.23633 435.38086 261.23633 z M 336.54688 261.41016 C 325.47609 261.41016 318.73828 277.27401 318.73828 291.21875 C 318.73828 296.62233 320.46143 300.97852 324.48242 300.97852 C 328.39897 300.97852 332.94192 295.48841 334.97852 286.94727 C 334.97852 291.30499 334.92773 295.74968 334.92773 300.10742 C 334.92773 308.82287 331.68875 311.52539 329.23438 311.52539 C 327.7722 311.52539 326.31158 310.91426 325.42383 309.78125 C 325.21495 308.21246 324.43021 307.25391 323.49023 307.25391 C 322.1325 307.25391 321.19336 309.17247 321.19336 311.78711 C 321.19336 315.18614 324.64029 318.0625 328.97461 318.0625 C 333.83113 318.0625 339.73047 312.5713 339.73047 300.89258 L 339.73047 265.85547 L 339.73242 265.85547 C 339.73242 262.7179 338.63569 261.41016 336.54688 261.41016 z M 174.0293 267.16406 C 177.00588 267.16406 178.05078 271.60838 178.05078 277.27344 C 178.05078 281.89263 176.90236 286.42373 174.91797 289.64844 C 173.03803 292.69886 171.20983 294.18164 168.91211 294.18164 C 167.03217 294.18164 165.46484 290.86942 165.46484 285.81445 C 165.46484 275.96597 169.79942 267.16406 174.0293 267.16406 z M 516.72852 267.16406 C 519.70509 267.16406 520.74805 271.60838 520.74805 277.27344 C 520.74805 281.89263 519.59962 286.42373 517.61523 289.64844 C 515.73529 292.69886 513.90709 294.18164 511.60938 294.18164 C 509.72944 294.18164 508.16406 290.86942 508.16406 285.81445 C 508.16406 275.96597 512.49864 267.16406 516.72852 267.16406 z M 272.45312 267.33789 C 274.75083 267.33789 275.63867 269.69149 275.63867 271.7832 C 275.63867 273.00337 274.33289 274.30992 265.08984 277.01172 C 266.65645 271.43382 269.47654 267.33789 272.45312 267.33789 z M 308.20312 267.33789 C 310.50085 267.33789 311.38867 269.69149 311.38867 271.7832 C 311.38867 273.00337 310.0829 274.30918 300.83984 276.92383 C 302.40646 271.43308 305.22654 267.33789 308.20312 267.33789 z M 334.92773 267.94727 L 334.92773 268.03516 C 334.77106 272.04427 334.24867 275.61634 333.51758 278.75391 C 331.42875 288.77669 327.25042 293.91992 325.10938 293.91992 C 324.11717 293.91992 323.54297 292.35049 323.54297 289.91016 C 323.54297 279.45161 328.66124 267.94727 334.92773 267.94727 z M 139.55664 279.71289 L 139.55664 282.41602 C 139.55664 286.42514 133.39559 294.00781 129.53125 294.00781 C 128.53906 294.00781 127.80859 293.48357 127.80859 292.00195 C 127.80859 288.07999 132.61128 281.10737 139.55664 279.71289 z M 384.95312 279.71289 L 384.95312 282.41602 C 384.95312 286.42514 378.79206 294.00781 374.92773 294.00781 C 373.93554 294.00781 373.20508 293.48357 373.20508 292.00195 C 373.20508 288.07999 378.00779 281.10737 384.95312 279.71289 z "
       id="path6604" />
  </g>
</svg>
